<svg xmlns="http://www.w3.org/2000/svg" width="1024" height="1024" viewBox="0 0 1024 1024">
  <defs>
    <linearGradient id="violet" x1="0" y1="0" x2="1" y2="1">
      <stop offset="0" stop-color="#5B55E8"/>
      <stop offset="1" stop-color="#8B5CF6"/>
    </linearGradient>
    <filter id="shadow" x="-20%" y="-20%" width="140%" height="140%">
      <feDropShadow dx="0" dy="20" stdDeviation="24" flood-color="#10152D" flood-opacity=".28"/>
    </filter>
  </defs>
  <rect x="32" y="32" width="960" height="960" rx="220" fill="url(#violet)"/>
  <circle cx="512" cy="512" r="300" fill="#161B35" opacity=".94" filter="url(#shadow)"/>
  <path d="M512 230 690 745h-82l-38-119H452l-38 119h-80l178-515zm0 120-41 201h82z" fill="#F7F8FF"/>
  <circle cx="278" cy="260" r="28" fill="#A7F3D0"/>
  <circle cx="746" cy="260" r="28" fill="#A7F3D0"/>
  <circle cx="280" cy="775" r="28" fill="#A7F3D0"/>
  <circle cx="744" cy="775" r="28" fill="#A7F3D0"/>
  <path d="M300 275 390 350M724 275 634 350M300 758 390 680M724 758 634 680" stroke="#A7F3D0" stroke-width="12" stroke-linecap="round"/>
</svg>
